<svg width="70" height="70" fill="none" xmlns="http://www.w3.org/2000/svg"><g clip-path="url(#clip0)"><path d="M67.961 33.473v-.001C67.958 15.258 53.19.496 34.976.5 16.762.504 2 15.272 2.004 33.486A32.979 32.979 0 0024.95 64.895c.084.026.17.04.255.039h.001a.977.977 0 00.496-.136c.19-.112.33-.29.397-.5l8.455-26.796.11-.348.364-.002a3.685 3.685 0 10-.038-7.37 3.627 3.627 0 00-1.577.368l-.32.157-.253-.252-11.166-11.168a.895.895 0 00-1.265 1.266l11.16 11.173.252.252-.157.321a3.604 3.604 0 001.03 4.436l.276.213-.105.333-8.055 25.534-.158.5-.492-.181C7.981 56.774-.303 38.827 5.657 22.647 11.617 6.469 29.564-1.816 45.744 4.143c16.179 5.96 24.463 23.908 18.503 40.087a31.22 31.22 0 01-16.589 17.726l-.564.251-.128-.604-.87-4.1a.894.894 0 00-1.472-.483l23.337-23.547zm0 0a32.87 32.87 0 01-20.1 30.358l-.381.16.086.404.855 4.023a.894.894 0 01-1.15 1.038l-10.716-3.42a.895.895 0 01-.325-1.522l8.394-7.493L67.96 33.473zM24.8 65.37c.133.042.27.063.41.063l-.41-.063zm14.446-1.152l-.653.582.833.267 6.096 1.951.82.263-.178-.843-1.319-6.213-.179-.843-.643.574-4.777 4.262zm-2.367-30.747a1.895 1.895 0 10-3.79 0 1.895 1.895 0 003.79 0z" fill="#212121"/><path d="M67.961 33.473v-.001C67.958 15.258 53.19.496 34.976.5 16.762.504 2 15.272 2.004 33.486A32.979 32.979 0 0024.95 64.895c.084.026.17.04.255.039h.001a.977.977 0 00.496-.136c.19-.112.33-.29.397-.5l8.455-26.796.11-.348.364-.002a3.684 3.684 0 003.665-3.703v0a3.685 3.685 0 00-3.703-3.667h0a3.627 3.627 0 00-1.577.368l-.32.157-.253-.252-11.166-11.168a.895.895 0 00-1.265 1.266l11.16 11.173.252.252-.157.321a3.604 3.604 0 001.03 4.436l.276.213-.105.333-8.055 25.534-.158.5-.492-.181C7.981 56.774-.303 38.827 5.657 22.647 11.617 6.469 29.564-1.816 45.744 4.143c16.179 5.96 24.463 23.908 18.503 40.087a31.22 31.22 0 01-16.589 17.726l-.564.251-.128-.604-.87-4.1h0a.894.894 0 00-1.472-.483l23.337-23.547zm0 0a32.87 32.87 0 01-20.1 30.358l-.381.16.086.404.855 4.023s0 0 0 0a.896.896 0 01-.024.46h0a.894.894 0 01-1.125.579h-.001l-10.716-3.42a.895.895 0 01-.325-1.522v-.001l8.394-7.493L67.96 33.473zM24.8 65.37c.133.042.27.063.41.063l-.41-.063zm14.446-1.152l-.653.582.833.267 6.096 1.951.82.263-.178-.843-1.319-6.213-.179-.843-.643.574-4.777 4.262zm-2.367-30.747a1.895 1.895 0 10-3.79 0 1.895 1.895 0 003.79 0z" stroke="#000"/><path d="M67.961 33.473v-.001C67.958 15.258 53.19.496 34.976.5 16.762.504 2 15.272 2.004 33.486A32.979 32.979 0 0024.95 64.895c.084.026.17.04.255.039h.001a.977.977 0 00.496-.136c.19-.112.33-.29.397-.5l8.455-26.796.11-.348.364-.002a3.684 3.684 0 003.665-3.703v0a3.685 3.685 0 00-3.703-3.667h0a3.627 3.627 0 00-1.577.368l-.32.157-.253-.252-11.166-11.168a.895.895 0 00-1.265 1.266l11.16 11.173.252.252-.157.321a3.604 3.604 0 001.03 4.436l.276.213-.105.333-8.055 25.534-.158.5-.492-.181C7.981 56.774-.303 38.827 5.657 22.647 11.617 6.469 29.564-1.816 45.744 4.143c16.179 5.96 24.463 23.908 18.503 40.087a31.22 31.22 0 01-16.589 17.726l-.564.251-.128-.604-.87-4.1h0a.894.894 0 00-1.472-.483l23.337-23.547zm0 0a32.87 32.87 0 01-20.1 30.358l-.381.16.086.404.855 4.023s0 0 0 0a.896.896 0 01-.024.46h0a.894.894 0 01-1.125.579h-.001l-10.716-3.42a.895.895 0 01-.325-1.522v-.001l8.394-7.493L67.96 33.473zM24.8 65.37c.133.042.27.063.41.063l-.41-.063zm14.446-1.152l-.653.582.833.267 6.096 1.951.82.263-.178-.843-1.319-6.213-.179-.843-.643.574-4.777 4.262zm-2.367-30.747a1.895 1.895 0 10-3.79 0 1.895 1.895 0 003.79 0z" stroke="url(#paint0_linear)"/><path d="M33.588 6.967v2.79a1.395 1.395 0 102.79 0v-2.79a1.395 1.395 0 00-2.79 0zM8.479 32.077a1.395 1.395 0 000 2.79h2.79a1.395 1.395 0 100-2.79h-2.79zM61.486 34.867a1.395 1.395 0 100-2.79h-2.79a1.395 1.395 0 000 2.79h2.79z" fill="#2196F3"/></g><defs><linearGradient id="paint0_linear" x1="34.983" y1="0" x2="34.983" y2="70" gradientUnits="userSpaceOnUse"><stop stop-color="#fff"/><stop offset="1" stop-color="#fff" stop-opacity="0"/></linearGradient><clipPath id="clip0"><path fill="#fff" d="M0 0h70v70H0z"/></clipPath></defs></svg>